<?xml version="1.0" encoding="utf-8"?>
<!-- Generator: Adobe Illustrator 23.0.2, SVG Export Plug-In . SVG Version: 6.00 Build 0)  -->
<svg version="1.1" id="Layer_1" xmlns="http://www.w3.org/2000/svg" xmlns:xlink="http://www.w3.org/1999/xlink" x="0px" y="0px"
	 viewBox="0 0 144 144" style="enable-background:new 0 0 144 144;" xml:space="preserve">
<style type="text/css">
	.st0{fill:#00968F;}
	.st1{fill:#FFFFFF;}
	.st2{fill:#211646;}
	.st3{fill:#003A5D;}
	.st4{fill:#60295E;}
	.st5{fill:#006241;}
	.st6{fill:#7B303E;}
	.st7{fill:#1D5632;}
	.st8{fill:#B0851E;}
	.st9{fill:#445464;}
	.st10{fill:none;}
	.st11{font-family:'FuturaStd-Book';}
	.st12{font-size:20.1706px;}
</style>
<g>
	<rect x="-0.03" y="0.01" class="st0" width="143.81" height="143.96"/>
</g>
<g>
	<path class="st1" d="M32.28,97.04c-10.18,0-18.46-8.28-18.46-18.46c0-8.49,5.76-15.85,14.01-17.89l1.69-0.42l0.16-1.73
		c1.2-13.05,12-22.9,25.12-22.9c11.49,0,21.53,7.78,24.41,18.92l0.61,2.37l2.37-0.61c3.42-0.88,6.85-0.52,9.81,0.92v-5.27
		c-2.76-0.95-5.74-1.26-8.72-0.85c-1.99-5.83-5.69-10.84-10.73-14.53c-5.22-3.82-11.36-5.84-17.76-5.84
		c-7.32,0-14.38,2.65-19.88,7.47c-5.37,4.7-8.88,11.15-9.92,18.2C15.51,59.52,8.92,68.57,8.92,78.58
		c0,12.88,10.48,23.36,23.35,23.36h71.01v-4.9H32.28z"/>
	<rect x="94.91" y="51.41" class="st2" width="11.8" height="11.8"/>
	<rect x="109.65" y="57.31" class="st3" width="8.72" height="8.72"/>
	<rect x="106.3" y="92.19" class="st4" width="9.75" height="9.75"/>
	<rect x="114.27" y="81.64" class="st5" width="6.16" height="6.16"/>
	<rect x="124.74" y="78.29" class="st6" width="9.75" height="9.75"/>
	<rect x="121.32" y="64.87" class="st7" width="10.26" height="10.26"/>
	<rect x="119.48" y="91.2" class="st8" width="8.21" height="8.21"/>
	<rect x="109.65" y="69.34" class="st9" width="7.7" height="7.7"/>
</g>
<rect x="11" y="115.28" class="st10" width="123.32" height="27.26"/>
<text transform="matrix(1 0 0 1 11.0054 131.9248)" class="st1 st11 st12">CMG CLOUD</text>
</svg>
